<svg width="250" height="223" viewBox="0 0 250 223" fill="none" xmlns="http://www.w3.org/2000/svg">
<g clip-path="url(#clip0_1_50)">
<path d="M177.015 127.917C175.556 127.778 174.098 127.57 172.709 127.362C174.167 127.57 175.626 127.709 177.015 127.917Z" fill="white"/>
<path d="M125 98.6114C113.681 76.5975 82.8472 35.5559 54.1667 15.3475C26.7361 -4.09691 16.25 -0.694135 9.375 2.36142C1.45833 5.97253 0 18.1948 0 25.3475C0 32.5003 3.95833 84.2364 6.52778 92.8475C15 121.32 45.2083 130.973 72.9861 127.917C74.375 127.709 75.8333 127.5 77.2917 127.361C75.8333 127.57 74.4445 127.778 72.9861 127.917C32.2222 133.959 -3.95833 148.82 43.5417 201.667C95.7639 255.764 115.069 190.07 125 156.806C134.931 190.07 146.389 253.403 205.556 201.667C250 156.806 217.778 133.959 177.014 127.917C175.556 127.778 174.097 127.57 172.708 127.361C174.167 127.57 175.625 127.709 177.014 127.917C204.792 131.042 235 121.389 243.472 92.8475C246.042 84.2364 250 32.5698 250 25.3475C250 18.1253 248.542 5.97253 240.625 2.36142C233.75 -0.763579 223.264 -4.09691 195.833 15.2781C167.153 35.4864 136.319 76.5281 125 98.542V98.6114Z" fill="black"/>
</g>
<defs>
<clipPath id="clip0_1_50">
<rect width="250" height="222.222" fill="white"/>
</clipPath>
</defs>
</svg>
